<svg xmlns="http://www.w3.org/2000/svg" width="124" height="108" viewBox="0 0 124 108" version="1.1"><path d="M 47 7.360 C 31.549 11.566, 18.082 24.842, 14.040 39.851 C 11.118 50.702, 13.556 67.719, 18.936 74.028 C 21.381 76.895, 21.683 76.982, 25.453 75.914 C 30.012 74.622, 36 69.120, 36 66.222 C 36 65.134, 35.287 62.539, 34.416 60.454 C 32.474 55.806, 32.318 47.949, 34.054 42.191 C 36.725 33.324, 47.023 25.019, 57.246 23.486 C 75.519 20.746, 92.373 38.609, 88.136 56.228 C 85.477 67.290, 85.533 68.380, 88.950 71.796 C 91.994 74.840, 96.900 76.537, 100.650 75.843 C 101.746 75.640, 103.723 73.055, 105.500 69.500 C 108.333 63.833, 108.500 62.833, 108.500 51.500 C 108.500 40.039, 108.357 39.208, 105.315 33 C 96.753 15.529, 80.814 5.919, 60.645 6.067 C 55.615 6.105, 49.475 6.686, 47 7.360 M 94.200 41.200 C 91.540 43.860, 93.597 48, 97.578 48 C 100.904 48, 102.540 45.481, 101.168 42.470 C 99.945 39.785, 96.282 39.118, 94.200 41.200 M 44.152 76.325 C 42.860 77.707, 39.513 79.824, 36.713 81.028 C 32.356 82.903, 30.235 83.162, 21.964 82.830 C 13.915 82.506, 11.444 81.996, 7.151 79.768 L 1.997 77.094 3.448 79.899 C 5.472 83.814, 11.140 88.561, 15.513 90.004 C 19.190 91.218, 29.644 90.965, 33.500 89.569 C 34.707 89.133, 33.967 90.247, 31.636 92.378 C 29.510 94.320, 25.910 96.544, 23.636 97.319 L 19.500 98.729 23.750 99.903 C 30.054 101.645, 34.955 99.995, 39.789 94.502 C 43.954 89.770, 47.373 81.006, 46.823 76.471 L 46.500 73.812 44.152 76.325 M 75.227 79.249 C 76.556 86.560, 78.220 90.131, 82.511 94.880 C 87.008 99.859, 91.803 101.448, 97.532 99.859 L 101.500 98.758 96.500 96.449 C 90.856 93.843, 86.232 90.435, 87.126 89.540 C 87.454 89.212, 88.939 89.407, 90.426 89.972 C 94.431 91.494, 103.540 91.219, 107.782 89.447 C 112.093 87.646, 116.578 83.649, 118.574 79.829 L 119.970 77.158 115.236 79.803 C 111.243 82.035, 108.990 82.510, 100.848 82.837 C 89.469 83.294, 82.874 81.566, 78.474 76.973 C 76.908 75.338, 75.321 74, 74.949 74 C 74.577 74, 74.702 76.362, 75.227 79.249 M 60.036 78.283 C 59.986 80.751, 55.663 89.059, 52.428 92.903 C 50.953 94.656, 47.665 97.208, 45.123 98.572 L 40.500 101.054 47.378 100.721 C 53.819 100.410, 54.466 100.160, 57.566 96.776 L 60.877 93.163 62.448 95.561 C 64.909 99.317, 69.406 101.144, 75.298 100.781 L 80.500 100.461 77.500 99.171 C 72.437 96.994, 66.903 90.840, 63.406 83.500 C 61.572 79.650, 60.056 77.302, 60.036 78.283" stroke="none" fill="#048bea" fill-rule="evenodd"/></svg>